<svg width="190" height="189" viewBox="0 0 190 189" fill="none" xmlns="http://www.w3.org/2000/svg">
<g clip-path="url(#clip0)">
<path d="M108.968 103.946H89.6912V189H108.968V103.946Z" fill="url(#paint0_linear)"/>
<path d="M107.699 103.946H91.4656V187.478H107.699V103.946Z" fill="#ECEFF1"/>
<path d="M153.814 37.6797H66.9977C64.0135 37.7559 61.0726 38.4119 58.3384 39.6112C49.5133 43.5262 44.3768 49.6709 42.9262 63.2982V94.7813L19.9219 94.5376C15.2956 94.5376 13.6042 101.818 13.6042 106.739H168.998V53.8296C168.998 44.9107 162.209 37.6797 153.814 37.6797Z" fill="url(#paint1_linear)"/>
<path d="M70.1578 40.98H156.176C158.971 40.98 161.651 42.0912 163.627 44.0692C165.603 46.0471 166.713 48.7298 166.713 51.5271V103.946H70.1578V40.98Z" fill="#8E74FF"/>
<path d="M68.1246 40.98C74.3136 40.98 80.2492 43.4409 84.6255 47.8213C89.0019 52.2017 91.4605 58.1428 91.4605 64.3376V92.5151C91.4605 95.5468 90.2572 98.4544 88.1155 100.598C85.9737 102.742 83.0688 103.946 80.0399 103.946H56.2093C53.1803 103.946 50.2755 102.742 48.1337 100.598C45.9919 98.4544 44.7887 95.5468 44.7887 92.5151V64.3376C44.7887 58.1428 47.2473 52.2017 51.6236 47.8213C55.9999 43.4409 61.9355 40.98 68.1246 40.98Z" fill="#C4C4C4"/>
<path opacity="0.2" d="M68.1246 40.98C74.3136 40.98 80.2492 43.4409 84.6255 47.8213C89.0019 52.2017 91.4605 58.1428 91.4605 64.3376V92.5151C91.4605 95.5468 90.2572 98.4544 88.1155 100.598C85.9737 102.742 83.0688 103.946 80.0399 103.946H56.2093C53.1803 103.946 50.2755 102.742 48.1337 100.598C45.9919 98.4544 44.7887 95.5468 44.7887 92.5151V64.3376C44.7887 58.1428 47.2473 52.2017 51.6236 47.8213C55.9999 43.4409 61.9355 40.98 68.1246 40.98Z" fill="black"/>
<path d="M130.276 32.603H118.228H110.999V46.9432V64.5918H119.749V46.9432H130.276V32.603Z" fill="url(#paint2_linear)"/>
<path d="M128.753 32.603H118.607H112.519V45.8051V62.0535H118.607V45.8051H128.753V32.603Z" fill="#FFCC80"/>
<path d="M44.9776 53.0007L42.5776 72.7358L74.6598 76.6446L77.0598 56.9094L44.9776 53.0007Z" fill="url(#paint3_linear)"/>
<path d="M45.3117 53.5391L43.072 71.9565L74.0665 75.7328L76.3063 57.3154L45.3117 53.5391Z" fill="#FAF8E4"/>
<g opacity="0.6">
<path opacity="0.6" d="M46.1247 58.0321L50.0691 58.5127L50.4243 55.5915L46.4799 55.111L46.1247 58.0321Z" fill="#8E74FF"/>
<path opacity="0.6" d="M48.6685 64.1078L63.811 65.9526L63.9262 65.0055L48.7837 63.1606L48.6685 64.1078Z" fill="#8E74FF"/>
<path opacity="0.6" d="M52.5209 66.6607L63.5621 68.0059L63.6388 67.3753L52.5976 66.0301L52.5209 66.6607Z" fill="#8E74FF"/>
</g>
<path d="M58.0496 57.342L55.6497 77.0771L87.7318 80.9859L90.1318 61.2507L58.0496 57.342Z" fill="url(#paint4_linear)"/>
<path d="M58.3838 57.8829L56.1441 76.3003L87.1386 80.0765L89.3783 61.6591L58.3838 57.8829Z" fill="#FAF8E4"/>
<g opacity="0.6">
<path opacity="0.6" d="M59.1988 62.3764L63.1432 62.8569L63.4984 59.9358L59.554 59.4552L59.1988 62.3764Z" fill="#8E74FF"/>
<path opacity="0.6" d="M61.7426 68.452L76.8851 70.2969L77.0002 69.3497L61.8578 67.5049L61.7426 68.452Z" fill="#C4C4C4"/>
<path opacity="0.6" d="M65.5899 71.0049L76.631 72.3501L76.7077 71.7195L65.6665 70.3743L65.5899 71.0049Z" fill="#C4C4C4"/>
</g>
<path d="M30.2748 59.1972L27.0217 85.9482L70.5076 91.2464L73.7608 64.4953L30.2748 59.1972Z" fill="url(#paint5_linear)"/>
<path d="M30.7299 59.9231L27.6937 84.8906L69.7063 90.0092L72.7425 65.0417L30.7299 59.9231Z" fill="white"/>
<g opacity="0.6">
<path opacity="0.6" d="M31.8319 66.0152L37.1777 66.6665L37.659 62.7081L32.3133 62.0569L31.8319 66.0152Z" fill="#8E74FF"/>
<path opacity="0.6" d="M35.2759 74.2535L55.8027 76.7544L55.9589 75.4701L35.4321 72.9692L35.2759 74.2535Z" fill="#8E74FF"/>
<path opacity="0.6" d="M40.4991 77.7121L55.4667 79.5356L55.5709 78.6786L40.6033 76.855L40.4991 77.7121Z" fill="#8E74FF"/>
</g>
<path d="M47.9948 65.0814L44.7416 91.8325L88.2276 97.1306L91.4807 70.3796L47.9948 65.0814Z" fill="url(#paint6_linear)"/>
<path d="M48.4471 65.8118L45.4108 90.7793L87.4234 95.8979L90.4596 70.9304L48.4471 65.8118Z" fill="white"/>
<g opacity="0.6">
<path opacity="0.6" d="M50 71.9586L55.3458 72.6099L55.8271 68.6515L50.4814 68.0002L50 71.9586Z" fill="#8E74FF"/>
<path opacity="0.6" d="M53.444 80.1969L73.9708 82.6978L74.1269 81.4135L53.6002 78.9126L53.444 80.1969Z" fill="#8E74FF"/>
<path opacity="0.6" d="M58.6669 83.6554L73.6344 85.479L73.7386 84.622L58.7711 82.7984L58.6669 83.6554Z" fill="#8E74FF"/>
</g>
<path opacity="0.2" d="M67.8758 41.2344C64.8231 41.232 61.7998 41.831 58.9782 42.9974C60.0772 42.8396 61.1861 42.7599 62.2964 42.7589C65.3609 42.7589 68.3954 43.3631 71.2266 44.5369C74.0579 45.7107 76.6304 47.4312 78.7973 49.6002C80.9643 51.7691 82.6832 54.3441 83.8559 57.1779C85.0287 60.0118 85.6323 63.0491 85.6323 66.1165V103.192H91.2117V64.592C91.2117 58.3972 88.7531 52.4561 84.3768 48.0757C80.0005 43.6953 74.0649 41.2344 67.8758 41.2344Z" fill="#2F00FF"/>
<path d="M24.5015 95.8208H91.4655V103.946H16.3835C16.3835 101.791 17.2388 99.7246 18.7612 98.2007C20.2836 96.6769 22.3485 95.8208 24.5015 95.8208Z" fill="#C4C4C4"/>
<path opacity="0.2" d="M24.5015 95.8208H91.4655V103.946H16.3835C16.3835 101.791 17.2388 99.7246 18.7612 98.2007C20.2836 96.6769 22.3485 95.8208 24.5015 95.8208Z" fill="#795AFF"/>
<path d="M170.278 18.2993L169.508 18.6752L169.596 18.5171L169.529 18.5378L169.625 18.4678L179.991 0L185.291 4.52426L189.839 8.7374L188.534 9.3752L190 11.9653L170.278 18.2993Z" fill="url(#paint7_linear)"/>
<path d="M184.768 5.00635L188.923 8.86428L170.086 18.2369L180.11 5.3771L184.768 5.00635Z" fill="#C4C4C4"/>
<path opacity="0.2" d="M184.768 5.00635L188.923 8.86428L170.086 18.2369L180.11 5.3771L184.768 5.00635Z" fill="#4CBFA4"/>
<path d="M179.919 0.868652L170.086 18.2371L184.768 5.0066L179.919 0.868652Z" fill="#8AD7C4"/>
<path d="M189.044 11.8488L170.107 18.1101L185.936 6.28223L189.044 11.8488Z" fill="#8AD7C4"/>
<path d="M31.516 22.5487L32.7542 22.7406L32.5625 22.5591H32.6687L32.5029 22.5021L10.0037 1.146L4.54336 9.77191L0 17.6408L2.10331 17.9674L1.17081 22.2298L31.516 22.5487Z" fill="url(#paint8_linear)"/>
<path d="M5.48628 10.2203L1.33664 17.4202L31.757 22.3774L12.164 8.72168L5.48628 10.2203Z" fill="#C4C4C4"/>
<path opacity="0.2" d="M5.48628 10.2203L1.33664 17.4202L31.757 22.3774L12.164 8.72168L5.48628 10.2203Z" fill="#4CBFA4"/>
<path d="M10.4829 2.33105L31.7569 22.3778L5.48624 10.2206L10.4829 2.33105Z" fill="#8AD7C4"/>
<path d="M2.45819 21.6518L31.674 22.2118L4.4009 12.5151L2.45819 21.6518Z" fill="#8AD7C4"/>
</g>
<defs>
<linearGradient id="paint0_linear" x1="99.3297" y1="189" x2="99.3297" y2="103.946" gradientUnits="userSpaceOnUse">
<stop stop-color="#808080" stop-opacity="0.25"/>
<stop offset="0.54" stop-color="#808080" stop-opacity="0.12"/>
<stop offset="1" stop-color="#808080" stop-opacity="0.1"/>
</linearGradient>
<linearGradient id="paint1_linear" x1="37037.7" y1="25024.7" x2="130266" y2="25024.7" gradientUnits="userSpaceOnUse">
<stop stop-color="#C7C5C5" stop-opacity="0.25"/>
<stop offset="0.54" stop-color="#808080" stop-opacity="0.12"/>
<stop offset="1" stop-color="#808080" stop-opacity="0.1"/>
</linearGradient>
<linearGradient id="paint2_linear" x1="9088.83" y1="8001.95" x2="9088.83" y2="4055.18" gradientUnits="userSpaceOnUse">
<stop stop-color="#808080" stop-opacity="0.25"/>
<stop offset="0.54" stop-color="#808080" stop-opacity="0.12"/>
<stop offset="1" stop-color="#808080" stop-opacity="0.1"/>
</linearGradient>
<linearGradient id="paint3_linear" x1="-6672.38" y1="11688.1" x2="-6372.39" y2="9225.79" gradientUnits="userSpaceOnUse">
<stop stop-color="#808080" stop-opacity="0.25"/>
<stop offset="0.54" stop-color="#808080" stop-opacity="0.12"/>
<stop offset="1" stop-color="#808080" stop-opacity="0.1"/>
</linearGradient>
<linearGradient id="paint4_linear" x1="-5699.37" y1="12154.2" x2="-5399.37" y2="9691.86" gradientUnits="userSpaceOnUse">
<stop stop-color="#808080" stop-opacity="0.25"/>
<stop offset="0.54" stop-color="#808080" stop-opacity="0.12"/>
<stop offset="1" stop-color="#808080" stop-opacity="0.1"/>
</linearGradient>
<linearGradient id="paint5_linear" x1="-10185.6" y1="18249.5" x2="-9634.42" y2="13725.5" gradientUnits="userSpaceOnUse">
<stop stop-color="#808080" stop-opacity="0.25"/>
<stop offset="0.54" stop-color="#808080" stop-opacity="0.12"/>
<stop offset="1" stop-color="#808080" stop-opacity="0.1"/>
</linearGradient>
<linearGradient id="paint6_linear" x1="-8391.23" y1="19104.4" x2="-7840.05" y2="14580.3" gradientUnits="userSpaceOnUse">
<stop stop-color="#808080" stop-opacity="0.25"/>
<stop offset="0.54" stop-color="#808080" stop-opacity="0.12"/>
<stop offset="1" stop-color="#808080" stop-opacity="0.1"/>
</linearGradient>
<linearGradient id="paint7_linear" x1="-2969.54" y1="14260.7" x2="-3811.78" y2="13541" gradientUnits="userSpaceOnUse">
<stop stop-color="#808080" stop-opacity="0.25"/>
<stop offset="0.54" stop-color="#808080" stop-opacity="0.12"/>
<stop offset="1" stop-color="#808080" stop-opacity="0.1"/>
</linearGradient>
<linearGradient id="paint8_linear" x1="1273.31" y1="16448.3" x2="2278.81" y2="14862.9" gradientUnits="userSpaceOnUse">
<stop stop-color="#808080" stop-opacity="0.25"/>
<stop offset="0.54" stop-color="#808080" stop-opacity="0.12"/>
<stop offset="1" stop-color="#808080" stop-opacity="0.1"/>
</linearGradient>
<clipPath id="clip0">
<rect width="190" height="189" fill="white"/>
</clipPath>
</defs>
</svg>
