<svg width="250" height="162" viewBox="0 0 250 162" fill="none" xmlns="http://www.w3.org/2000/svg">
<path d="M249.625 0.0981445H76.2375V111.04H249.625V0.0981445Z" fill="#9AEDD9"/>
<path d="M244.667 14.0132H81.1955V104.477H244.667V14.0132Z" fill="white"/>
<path d="M249.551 0H76.1635V7.35928H249.551V0Z" fill="#8E74FF"/>
<path d="M81.6374 5.12641C82.3914 5.12641 83.0027 4.51573 83.0027 3.76242C83.0027 3.00912 82.3914 2.39844 81.6374 2.39844C80.8834 2.39844 80.2722 3.00912 80.2722 3.76242C80.2722 4.51573 80.8834 5.12641 81.6374 5.12641Z" fill="white"/>
<path d="M86.8196 5.12641C87.5736 5.12641 88.1849 4.51573 88.1849 3.76242C88.1849 3.00912 87.5736 2.39844 86.8196 2.39844C86.0656 2.39844 85.4543 3.00912 85.4543 3.76242C85.4543 4.51573 86.0656 5.12641 86.8196 5.12641Z" fill="white"/>
<path d="M92.0017 5.12641C92.7557 5.12641 93.367 4.51573 93.367 3.76242C93.367 3.00912 92.7557 2.39844 92.0017 2.39844C91.2477 2.39844 90.6365 3.00912 90.6365 3.76242C90.6365 4.51573 91.2477 5.12641 92.0017 5.12641Z" fill="white"/>
<path d="M198.412 22.4861H145.191C145.077 22.4711 144.973 22.4154 144.898 22.3293C144.822 22.2433 144.78 22.1327 144.78 22.0182C144.78 21.9037 144.822 21.7931 144.898 21.707C144.973 21.621 145.077 21.5653 145.191 21.5503H198.412C198.526 21.5653 198.63 21.621 198.706 21.707C198.781 21.7931 198.823 21.9037 198.823 22.0182C198.823 22.1327 198.781 22.2433 198.706 22.3293C198.63 22.4154 198.526 22.4711 198.412 22.4861Z" fill="#4CBFA4"/>
<path d="M161.535 27.6331H127.697C127.583 27.6181 127.479 27.5624 127.404 27.4763C127.328 27.3902 127.286 27.2796 127.286 27.1652C127.286 27.0507 127.328 26.9401 127.404 26.854C127.479 26.7679 127.583 26.7122 127.697 26.6973H161.535C161.649 26.7122 161.753 26.7679 161.829 26.854C161.904 26.9401 161.946 27.0507 161.946 27.1652C161.946 27.2796 161.904 27.3902 161.829 27.4763C161.753 27.5624 161.649 27.6181 161.535 27.6331Z" fill="#4CBFA4"/>
<path d="M198.412 27.7266H164.574C164.46 27.7116 164.356 27.6559 164.281 27.5698C164.205 27.4837 164.163 27.3731 164.163 27.2587C164.163 27.1442 164.205 27.0336 164.281 26.9475C164.356 26.8614 164.46 26.8057 164.574 26.7908H198.412C198.526 26.8057 198.63 26.8614 198.706 26.9475C198.781 27.0336 198.823 27.1442 198.823 27.2587C198.823 27.3731 198.781 27.4837 198.706 27.5698C198.63 27.6559 198.526 27.7116 198.412 27.7266H198.412Z" fill="#4CBFA4"/>
<path d="M161.617 32.7798H127.779C127.666 32.7648 127.561 32.7091 127.486 32.623C127.41 32.537 127.369 32.4264 127.369 32.3119C127.369 32.1974 127.41 32.0868 127.486 32.0007C127.561 31.9147 127.666 31.859 127.779 31.844H161.617C161.731 31.859 161.835 31.9147 161.911 32.0007C161.986 32.0868 162.028 32.1974 162.028 32.3119C162.028 32.4264 161.986 32.537 161.911 32.623C161.835 32.7091 161.731 32.7648 161.617 32.7798Z" fill="#4CBFA4"/>
<path d="M161.699 37.9265H127.861C127.748 37.9116 127.643 37.8558 127.568 37.7698C127.492 37.6837 127.451 37.5731 127.451 37.4586C127.451 37.3441 127.492 37.2336 127.568 37.1475C127.643 37.0614 127.748 37.0057 127.861 36.9907H161.699C161.813 37.0057 161.917 37.0614 161.993 37.1475C162.068 37.2336 162.11 37.3441 162.11 37.4586C162.11 37.5731 162.068 37.6837 161.993 37.7698C161.917 37.8558 161.813 37.9116 161.699 37.9265Z" fill="#4CBFA4"/>
<path d="M177.058 32.7798H167.366C167.253 32.7648 167.149 32.7091 167.073 32.623C166.997 32.537 166.956 32.4264 166.956 32.3119C166.956 32.1974 166.997 32.0868 167.073 32.0007C167.149 31.9147 167.253 31.859 167.366 31.844H177.058C177.172 31.859 177.276 31.9147 177.351 32.0007C177.427 32.0868 177.469 32.1974 177.469 32.3119C177.469 32.4264 177.427 32.537 177.351 32.623C177.276 32.7091 177.172 32.7648 177.058 32.7798Z" fill="#4CBFA4"/>
<path d="M177.058 37.833H167.366C167.253 37.818 167.149 37.7623 167.073 37.6763C166.997 37.5902 166.956 37.4796 166.956 37.3651C166.956 37.2506 166.997 37.14 167.073 37.054C167.149 36.9679 167.253 36.9122 167.366 36.8972H177.058C177.172 36.9122 177.276 36.9679 177.351 37.054C177.427 37.14 177.469 37.2506 177.469 37.3651C177.469 37.4796 177.427 37.5902 177.351 37.6763C177.276 37.7623 177.172 37.818 177.058 37.833Z" fill="#4CBFA4"/>
<path d="M193.32 37.833H183.628C183.515 37.818 183.411 37.7623 183.335 37.6763C183.259 37.5902 183.218 37.4796 183.218 37.3651C183.218 37.2506 183.259 37.14 183.335 37.054C183.411 36.9679 183.515 36.9122 183.628 36.8972H193.32C193.434 36.9122 193.538 36.9679 193.613 37.054C193.689 37.14 193.731 37.2506 193.731 37.3651C193.731 37.4796 193.689 37.5902 193.613 37.6763C193.538 37.7623 193.434 37.818 193.32 37.833Z" fill="#4CBFA4"/>
<path d="M137.142 22.4861H127.451C127.337 22.4711 127.233 22.4154 127.157 22.3293C127.082 22.2433 127.04 22.1327 127.04 22.0182C127.04 21.9037 127.082 21.7931 127.157 21.707C127.233 21.621 127.337 21.5653 127.451 21.5503H137.142C137.256 21.5653 137.36 21.621 137.436 21.707C137.511 21.7931 137.553 21.9037 137.553 22.0182C137.553 22.1327 137.511 22.2433 137.436 22.3293C137.36 22.4154 137.256 22.4711 137.142 22.4861Z" fill="#4CBFA4"/>
<path d="M161.412 81.499H127.574C127.46 81.4841 127.356 81.4284 127.28 81.3423C127.205 81.2562 127.163 81.1456 127.163 81.0311C127.163 80.9166 127.205 80.8061 127.28 80.72C127.356 80.6339 127.46 80.5782 127.574 80.5632H161.412C161.526 80.5782 161.63 80.6339 161.705 80.72C161.781 80.8061 161.823 80.9166 161.823 81.0311C161.823 81.1456 161.781 81.2562 161.705 81.3423C161.63 81.4284 161.526 81.4841 161.412 81.499H161.412Z" fill="#4CBFA4"/>
<path d="M161.248 91.7925H127.41C127.296 91.7775 127.192 91.7218 127.116 91.6357C127.041 91.5497 126.999 91.4391 126.999 91.3246C126.999 91.2101 127.041 91.0995 127.116 91.0134C127.192 90.9274 127.296 90.8716 127.41 90.8567H161.248C161.361 90.8716 161.466 90.9274 161.541 91.0134C161.617 91.0995 161.658 91.2101 161.658 91.3246C161.658 91.4391 161.617 91.5497 161.541 91.6357C161.466 91.7218 161.361 91.7775 161.248 91.7925H161.248Z" fill="#4CBFA4"/>
<path d="M161.33 96.9394H127.492C127.378 96.9245 127.274 96.8688 127.198 96.7827C127.123 96.6966 127.081 96.586 127.081 96.4716C127.081 96.3571 127.123 96.2465 127.198 96.1604C127.274 96.0743 127.378 96.0186 127.492 96.0037H161.33C161.443 96.0186 161.548 96.0743 161.623 96.1604C161.699 96.2465 161.74 96.3571 161.74 96.4716C161.74 96.586 161.699 96.6966 161.623 96.7827C161.548 96.8688 161.443 96.9245 161.33 96.9394H161.33Z" fill="#4CBFA4"/>
<path d="M175.785 91.8862H166.093C165.98 91.8713 165.875 91.8156 165.8 91.7295C165.724 91.6434 165.683 91.5328 165.683 91.4183C165.683 91.3038 165.724 91.1933 165.8 91.1072C165.875 91.0211 165.98 90.9654 166.093 90.9504H175.785C175.899 90.9654 176.003 91.0211 176.078 91.1072C176.154 91.1933 176.196 91.3038 176.196 91.4183C176.196 91.5328 176.154 91.6434 176.078 91.7295C176.003 91.8156 175.899 91.8713 175.785 91.8862Z" fill="#4CBFA4"/>
<path d="M175.785 96.9394H166.093C165.98 96.9245 165.875 96.8688 165.8 96.7827C165.724 96.6966 165.683 96.586 165.683 96.4716C165.683 96.3571 165.724 96.2465 165.8 96.1604C165.875 96.0743 165.98 96.0186 166.093 96.0037H175.785C175.899 96.0186 176.003 96.0743 176.078 96.1604C176.154 96.2465 176.196 96.3571 176.196 96.4716C176.196 96.586 176.154 96.6966 176.078 96.7827C176.003 96.8688 175.899 96.9245 175.785 96.9394Z" fill="#4CBFA4"/>
<path d="M192.047 91.8862H182.355C182.242 91.8713 182.138 91.8156 182.062 91.7295C181.986 91.6434 181.945 91.5328 181.945 91.4183C181.945 91.3038 181.986 91.1933 182.062 91.1072C182.138 91.0211 182.242 90.9654 182.355 90.9504H192.047C192.161 90.9654 192.265 91.0211 192.34 91.1072C192.416 91.1933 192.458 91.3038 192.458 91.4183C192.458 91.5328 192.416 91.6434 192.34 91.7295C192.265 91.8156 192.161 91.8713 192.047 91.8862Z" fill="#4CBFA4"/>
<path d="M198.453 86.6457H145.232C145.119 86.6308 145.014 86.5751 144.939 86.489C144.863 86.4029 144.821 86.2923 144.821 86.1779C144.821 86.0634 144.863 85.9528 144.939 85.8667C145.014 85.7806 145.119 85.7249 145.232 85.71H198.453C198.567 85.7249 198.671 85.7806 198.747 85.8667C198.822 85.9528 198.864 86.0634 198.864 86.1779C198.864 86.2923 198.822 86.4029 198.747 86.489C198.671 86.5751 198.567 86.6308 198.453 86.6457Z" fill="#4CBFA4"/>
<path d="M137.183 86.6457H127.492C127.378 86.6308 127.274 86.5751 127.198 86.489C127.123 86.4029 127.081 86.2923 127.081 86.1779C127.081 86.0634 127.123 85.9528 127.198 85.8667C127.274 85.7806 127.378 85.7249 127.492 85.71H137.183C137.297 85.7249 137.401 85.7806 137.477 85.8667C137.552 85.9528 137.594 86.0634 137.594 86.1779C137.594 86.2923 137.552 86.4029 137.477 86.489C137.401 86.5751 137.297 86.6308 137.183 86.6457Z" fill="#4CBFA4"/>
<path d="M153.24 46.2402L140.099 59.2051L153.24 72.1697L156.197 69.2158L146.259 59.287L156.279 49.2763L153.24 46.2402Z" fill="#9AEDD9"/>
<path d="M172.623 46.2402L185.764 59.2051L172.623 72.1697L169.666 69.2158L179.604 59.287L169.584 49.2763L172.623 46.2402Z" fill="#9AEDD9"/>
<path d="M153.24 46.2402L140.099 59.2051L153.24 72.1697L156.197 69.2158L146.259 59.287L156.279 49.2763L153.24 46.2402Z" fill="#8E74FF"/>
<path d="M172.623 46.2402L185.764 59.2051L172.623 72.1697L169.666 69.2158L179.604 59.287L169.584 49.2763L172.623 46.2402Z" fill="#8E74FF"/>
<path d="M131.303 154.691C135.392 160.162 143.88 160.738 143.88 160.738C143.88 160.738 145.738 152.444 141.649 146.973C137.56 141.502 129.072 140.926 129.072 140.926C129.072 140.926 127.214 149.22 131.303 154.691Z" fill="#9AEDD9"/>
<path d="M152.133 156.748C149.434 160.358 143.834 160.738 143.834 160.738C143.834 160.738 142.607 155.265 145.306 151.655C148.004 148.045 153.604 147.665 153.604 147.665C153.604 147.665 154.831 153.138 152.133 156.748Z" fill="#8AD7C4"/>
<path d="M40.3423 130.599V144.8H36.2811L33.574 129.923L40.3423 130.599Z" fill="#FFB9B9"/>
<path d="M8.19198 130.599V144.8H4.13107L1.42361 129.923L8.19198 130.599Z" fill="#FFB9B9"/>
<path d="M29.6159 25.9167C29.6159 25.9167 23.09 21.2306 22.2743 23.4718C21.4585 25.713 27.1687 29.7879 27.1687 29.7879L29.6159 25.9167Z" fill="#FFB9B9"/>
<path d="M6.46927 31.9272C6.46927 40.029 9.96073 40.2807 15.6486 40.2807C21.3364 40.2807 27.0667 40.029 27.0667 31.9272C27.0667 23.8254 22.4558 17.2576 16.768 17.2576C11.0802 17.2576 6.46927 23.8254 6.46927 31.9272Z" fill="#64453C"/>
<path d="M20.4388 31.8254C20.4388 31.8254 19.6231 37.9377 23.4978 38.3452C27.3726 38.7527 10.8539 39.9751 10.8539 39.9751C10.8539 39.9751 15.1365 36.104 12.8932 33.0478C10.6499 29.9916 20.4388 31.8254 20.4388 31.8254Z" fill="#FFB9B9"/>
<path d="M41.0363 141.033L42.4638 153.054C42.4638 153.054 49.6015 161.815 45.115 161.203C40.6284 160.592 37.7733 161.333 37.7733 160.518C37.7733 159.703 37.6678 156.792 37.056 156.792C36.4442 156.792 35.9379 161.39 35.9379 161.39C35.9379 161.39 34.1025 161.251 33.8985 161.047C33.6946 160.843 33.4907 149.183 33.4907 149.183C33.4907 149.183 32.8789 145.719 34.1025 144.089C35.3261 142.459 35.1221 141.033 35.1221 141.033L41.0363 141.033Z" fill="#2F2E41"/>
<path d="M8.54754 140.9L9.97509 152.921C9.97509 152.921 17.1128 161.682 12.6262 161.071C8.13968 160.46 5.28458 161.201 5.28458 160.386C5.28458 159.571 5.1791 156.659 4.56729 156.659C3.95548 156.659 3.44917 161.257 3.44917 161.257C3.44917 161.257 1.61375 161.119 1.40982 160.915C1.20588 160.711 1.00195 149.05 1.00195 149.05C1.00195 149.05 0.390146 145.587 1.61375 143.957C2.83736 142.327 2.63343 140.9 2.63343 140.9H8.54754Z" fill="#2F2E41"/>
<path d="M30.0483 71C30.0483 71 36.5742 89.5408 36.9821 93.6157C37.39 97.6906 36.5742 111.545 36.5742 111.545C36.5742 111.545 42.4883 135.484 41.2647 135.687C40.0411 135.891 33.227 136.857 33.023 135.838C32.8191 134.82 32.092 133.242 32.296 132.631C32.4999 132.02 31.6842 129.779 31.6842 128.556C31.6842 127.334 28.8247 120.917 29.0286 119.899C29.2325 118.88 25.5617 103.803 24.9499 102.58C24.3381 101.358 22.7066 92.8007 22.7066 92.8007C22.7066 92.8007 13.5295 117.861 13.3256 118.473C13.1217 119.084 12.3059 120.103 12.7138 120.306C13.1217 120.51 12.102 121.936 12.102 121.936C12.102 121.936 9.98879 130.39 9.98879 130.797C9.98879 131.205 10.3967 135.817 9.58092 136.021C8.76519 136.225 0.432784 136.212 0.0249126 134.786C-0.382959 133.359 4.35246 116.843 4.35246 116.843C4.35246 116.843 7.81936 106.452 6.79968 103.803C5.78001 101.154 7.81936 85.2622 8.6351 84.0397C9.45084 82.8172 9.65478 75.4824 9.65478 75.4824L30.0483 71Z" fill="#2F2E41"/>
<path d="M16.87 35.1871C20.4741 35.1871 23.3959 32.2681 23.3959 28.6673C23.3959 25.0665 20.4741 22.1475 16.87 22.1475C13.2658 22.1475 10.3441 25.0665 10.3441 28.6673C10.3441 32.2681 13.2658 35.1871 16.87 35.1871Z" fill="#FFB9B9"/>
<path d="M20.4388 36.919C20.4388 36.919 13.0971 37.1228 12.6893 36.5115C12.2814 35.9003 2.08466 37.9377 2.08466 42.0126C2.08466 46.0875 7.99877 61.9797 7.99877 61.9797C7.99877 61.9797 10.2421 73.3894 9.63025 74.6118C9.01845 75.8343 32.267 71.9632 31.6552 69.9257C31.0434 67.8883 27.5765 63.4059 32.0631 59.5347C36.5497 55.6636 38.3851 51.5887 38.3851 51.5887L33.0828 37.5302C33.0828 37.5302 27.7805 36.7153 26.5568 37.5302C25.3332 38.3452 20.4388 36.919 20.4388 36.919Z" fill="#8E74FF"/>
<path d="M36.9575 52.6074L38.3851 51.5887C38.3851 51.5887 51.6409 37.734 48.174 35.0853C44.7071 32.4367 39.6087 29.9917 37.1615 29.788C34.7143 29.5842 32.6749 27.7505 32.6749 27.7505C32.6749 27.7505 30.0237 23.0644 27.9844 26.1206C25.9451 29.1767 23.7018 30.1955 26.5569 31.2142C29.4119 32.2329 31.2474 31.8254 32.6749 32.8442C34.1025 33.8629 39.6087 35.4928 37.1615 36.1041C35.7581 36.4439 34.3919 36.9216 33.0828 37.5303L30.4316 42.2164L36.9575 52.6074Z" fill="#8E74FF"/>
<path d="M13.9129 87.0403C13.9129 87.0403 19.2152 94.7826 15.3404 94.3751C11.4657 93.9676 9.63025 88.6702 9.63025 88.6702L13.9129 87.0403Z" fill="#FFB9B9"/>
<path d="M3.51221 40.9939L2.08467 42.0126C2.08467 42.0126 -2.60584 67.6845 2.08467 74.4081C6.77517 81.1316 7.18304 80.7242 7.18304 80.7242C7.18304 80.7242 7.99878 80.1129 8.40665 84.1878C8.81452 88.2627 8.20272 89.8927 9.42633 89.8927C10.6499 89.8927 16.1562 88.6702 15.7483 87.6515C15.3404 86.6328 12.6893 80.7242 12.4854 79.2979C12.2814 77.8717 11.2617 74.6118 10.8539 72.7781C10.446 70.9444 12.6893 69.9257 11.6696 66.0545C10.6499 62.1834 9.22239 55.256 9.22239 53.8298C9.22239 52.4036 3.51221 40.9939 3.51221 40.9939Z" fill="#8E74FF"/>
<path d="M27.0056 33.3022C27.0056 33.3022 27.2803 40.6882 19.9338 40.2807C12.5873 39.8733 20.9266 33.9673 20.9266 33.9673L27.0056 33.3022Z" fill="#64453C"/>
</svg>
